{
  "accessors": [
    {
      "bufferView": 2,
      "componentType": 5126,
      "count": 200,
      "max": [
        0.31546157598495483,
        0.99999988079071045,
        0.24610710144042969
      ],
      "min": [
        -0.31546169519424438,
        -1,
        -0.28531712293624878
      ],
      "type": "VEC3"
    },
    {
      "bufferView": 2,
      "byteOffset": 2400,
      "componentType": 5126,
      "count": 200,
      "max": [
        0.99999821186065674,
        1,
        0.98508346080780029
      ],
      "min": [
        -0.99999821186065674,
        -1,
        -0.98881173133850098
      ],
      "type": "VEC3"
    },
    {
      "bufferView": 3,
      "componentType": 5126,
      "count": 200,
      "max": [
        1,
        0.5269584059715271,
        0.99996507167816162,
        1
      ],
      "min": [
        -0.98881274461746216,
        -0.5269588828086853,
        -1,
        1
      ],
      "type": "VEC4"
    },
    {
      "bufferView": 1,
      "componentType": 5126,
      "count": 200,
      "max": [
        0.96687072515487671,
        0.8953431248664856
      ],
      "min": [
        0.040833637118339539,
        0.083787128329277039
      ],
      "type": "VEC2"
    },
    {
      "bufferView": 0,
      "componentType": 5125,
      "count": 774,
      "max": [
        199
      ],
      "min": [
        0
      ],
      "type": "SCALAR"
    },
    {
      "bufferView": 2,
      "byteOffset": 4800,
      "componentType": 5126,
      "count": 8,
      "max": [
        0.25761181116104126,
        0.22912001609802246,
        0.25505408644676208
      ],
      "min": [
        -0.25278067588806152,
        -0.90407752990722656,
        0.18868452310562134
      ],
      "type": "VEC3"
    },
    {
      "bufferView": 2,
      "byteOffset": 4896,
      "componentType": 5126,
      "count": 8,
      "max": [
        0.69362151622772217,
        -0.00070965028135105968,
        0.98888313770294189
      ],
      "min": [
        -0.69362139701843262,
        -0.0033103476744145155,
        0.72033202648162842
      ],
      "type": "VEC3"
    },
    {
      "bufferView": 3,
      "byteOffset": 3200,
      "componentType": 5126,
      "count": 8,
      "max": [
        0.9888768196105957,
        3.7979386888764566e-06,
        0.69358813762664795,
        1
      ],
      "min": [
        0.72033315896987915,
        -0.0077552120201289654,
        -0.69362539052963257,
        1
      ],
      "type": "VEC4"
    },
    {
      "bufferView": 1,
      "byteOffset": 1600,
      "componentType": 5126,
      "count": 8,
      "max": [
        0.47300535440444946,
        0.58365684747695923
      ],
      "min": [
        0.23712317645549774,
        0.12439745664596558
      ],
      "type": "VEC2"
    },
    {
      "bufferView": 1,
      "byteOffset": 1664,
      "componentType": 5126,
      "count": 8,
      "max": [
        0.47300535440444946,
        0.58365684747695923
      ],
      "min": [
        0.23712317645549774,
        0.12439745664596558
      ],
      "type": "VEC2"
    },
    {
      "bufferView": 0,
      "byteOffset": 3096,
      "componentType": 5125,
      "count": 18,
      "max": [
        7
      ],
      "min": [
        0
      ],
      "type": "SCALAR"
    }
  ],
  "asset": {
    "extras": {
      "author": "lgoodn123 (https://sketchfab.com/lgoodn123)",
      "license": "CC-BY-4.0 (http://creativecommons.org/licenses/by/4.0/)",
      "source": "https://sketchfab.com/3d-models/bourbon-bottle-9eced0b9937442298959383860626ca7",
      "title": "Bourbon Bottle"
    },
    "generator": "Sketchfab-6.94.0",
    "version": "2.0"
  },
  "bufferViews": [
    {
      "buffer": 0,
      "byteLength": 3168,
      "byteOffset": 0,
      "name": "floatBufferViews",
      "target": 34963
    },
    {
      "buffer": 0,
      "byteLength": 1728,
      "byteOffset": 3168,
      "byteStride": 8,
      "name": "floatBufferViews",
      "target": 34962
    },
    {
      "buffer": 0,
      "byteLength": 4992,
      "byteOffset": 4896,
      "byteStride": 12,
      "name": "floatBufferViews",
      "target": 34962
    },
    {
      "buffer": 0,
      "byteLength": 3328,
      "byteOffset": 9888,
      "byteStride": 16,
      "name": "floatBufferViews",
      "target": 34962
    }
  ],
  "buffers": [
    {
      "byteLength": 13216,
      "uri": "scene.bin"
    }
  ],
  "images": [
    {
      "uri": "textures/labelbackground_baseColor.png"
    }
  ],
  "materials": [
    {
      "alphaMode": "BLEND",
      "doubleSided": true,
      "name": "aiStandardSurface2",
      "pbrMetallicRoughness": {
        "baseColorFactor": [
          0.72056250572204594,
          0.72056250572204594,
          0.72056250572204594,
          0.3580625057220459
        ],
        "metallicFactor": 1,
        "roughnessFactor": 0
      }
    },
    {
      "alphaMode": "BLEND",
      "doubleSided": true,
      "emissiveFactor": [
        0,
        0,
        0
      ],
      "name": "labelbackground",
      "pbrMetallicRoughness": {
        "baseColorFactor": [
          1,
          1,
          1,
          1
        ],
        "baseColorTexture": {
          "index": 0,
          "texCoord": 0
        },
        "metallicFactor": 0,
        "roughnessFactor": 0.59999999999999998
      }
    }
  ],
  "meshes": [
    {
      "name": "polySurface1_aiStandardSurface2_0",
      "primitives": [
        {
          "attributes": {
            "NORMAL": 1,
            "POSITION": 0,
            "TANGENT": 2,
            "TEXCOORD_0": 3
          },
          "indices": 4,
          "material": 0,
          "mode": 4
        }
      ]
    },
    {
      "name": "polySurface2_labelbackground_0",
      "primitives": [
        {
          "attributes": {
            "NORMAL": 6,
            "POSITION": 5,
            "TANGENT": 7,
            "TEXCOORD_0": 8,
            "TEXCOORD_1": 9
          },
          "indices": 10,
          "material": 1,
          "mode": 4
        }
      ]
    }
  ],
  "nodes": [
    {
      "children": [
        1
      ],
      "name": "RootNode (gltf orientation matrix)",
      "rotation": [
        -0.70710678118654746,
        -0,
        -0,
        0.70710678118654757
      ]
    },
    {
      "children": [
        2
      ],
      "name": "RootNode (model correction matrix)"
    },
    {
      "children": [
        3
      ],
      "matrix": [
        1,
        0,
        0,
        0,
        0,
        0,
        1,
        0,
        0,
        -1,
        0,
        0,
        0,
        0,
        0,
        1
      ],
      "name": "4ea6af16c74d46d48df1ecbb93de8dd4.fbx"
    },
    {
      "children": [
        4
      ],
      "name": "RootNode"
    },
    {
      "children": [
        5,
        7
      ],
      "matrix": [
        6.5227746963500977,
        0,
        0,
        0,
        0,
        4.8948211669921875,
        0,
        0,
        0,
        0,
        3.4320328235626221,
        0,
        0.78320026397705078,
        5.3378329277038574,
        0,
        1
      ],
      "name": "pCylinder3"
    },
    {
      "children": [
        6
      ],
      "matrix": [
        1,
        0,
        0,
        0,
        0,
        1,
        0,
        0,
        0,
        0,
        1,
        0,
        -0.039822917431592941,
        0,
        0,
        1
      ],
      "name": "polySurface1"
    },
    {
      "mesh": 0,
      "name": "polySurface1_aiStandardSurface2_0"
    },
    {
      "children": [
        8
      ],
      "matrix": [
        1.0175635814666748,
        0,
        0,
        0,
        0,
        1.0212773084640503,
        0,
        0,
        0,
        0,
        1,
        0,
        -0.043141748756170273,
        0.0069807963445782661,
        -0.016779856756329536,
        1
      ],
      "name": "polySurface2"
    },
    {
      "mesh": 1,
      "name": "polySurface2_labelbackground_0"
    }
  ],
  "samplers": [
    {
      "magFilter": 9729,
      "minFilter": 9987,
      "wrapS": 10497,
      "wrapT": 10497
    }
  ],
  "scene": 0,
  "scenes": [
    {
      "name": "OSG_Scene",
      "nodes": [
        0
      ]
    }
  ],
  "textures": [
    {
      "sampler": 0,
      "source": 0
    }
  ]
}

